<mxfile host="app.diagrams.net" modified="2024-05-01T06:02:06.779Z" agent="Mozilla/5.0 (Windows NT 10.0; Win64; x64) AppleWebKit/537.36 (KHTML, like Gecko) Chrome/124.0.0.0 Safari/537.36" etag="_S_MmdVfoJI4Errc4s6g" version="24.3.1" type="github" pages="2">
  <diagram name="Page-1" id="eI5MJ9ph18L939sqV30D">
    <mxGraphModel dx="1290" dy="569" grid="1" gridSize="10" guides="1" tooltips="1" connect="1" arrows="1" fold="1" page="1" pageScale="1" pageWidth="827" pageHeight="1169" math="0" shadow="0">
      <root>
        <mxCell id="WIyWlLk6GJQsqaUBKTNV-0" />
        <mxCell id="WIyWlLk6GJQsqaUBKTNV-1" parent="WIyWlLk6GJQsqaUBKTNV-0" />
        <mxCell id="5IkHLqueFjQLgWotuJ4o-40" value="Client" style="swimlane;fontStyle=0;align=center;verticalAlign=top;childLayout=stackLayout;horizontal=1;startSize=26;horizontalStack=0;resizeParent=1;resizeLast=0;collapsible=1;marginBottom=0;rounded=0;shadow=0;strokeWidth=1;" parent="WIyWlLk6GJQsqaUBKTNV-1" vertex="1">
          <mxGeometry x="490" y="20" width="260" height="470" as="geometry">
            <mxRectangle x="480" y="190" width="160" height="26" as="alternateBounds" />
          </mxGeometry>
        </mxCell>
        <mxCell id="5IkHLqueFjQLgWotuJ4o-41" value="UserID: String" style="text;align=left;verticalAlign=top;spacingLeft=4;spacingRight=4;overflow=hidden;rotatable=0;points=[[0,0.5],[1,0.5]];portConstraint=eastwest;" parent="5IkHLqueFjQLgWotuJ4o-40" vertex="1">
          <mxGeometry y="26" width="260" height="26" as="geometry" />
        </mxCell>
        <mxCell id="5IkHLqueFjQLgWotuJ4o-42" value="ChatMsg: List&lt;Messages&gt;Â " style="text;align=left;verticalAlign=top;spacingLeft=4;spacingRight=4;overflow=hidden;rotatable=0;points=[[0,0.5],[1,0.5]];portConstraint=eastwest;rounded=0;shadow=0;html=0;" parent="5IkHLqueFjQLgWotuJ4o-40" vertex="1">
          <mxGeometry y="52" width="260" height="26" as="geometry" />
        </mxCell>
        <mxCell id="JRU_-GttZzj6qFbwlXtj-8" value="" style="endArrow=none;html=1;rounded=0;fontSize=12;startSize=8;endSize=8;entryX=1;entryY=0;entryDx=0;entryDy=0;" parent="5IkHLqueFjQLgWotuJ4o-40" target="JRU_-GttZzj6qFbwlXtj-0" edge="1">
          <mxGeometry width="50" height="50" relative="1" as="geometry">
            <mxPoint y="138" as="sourcePoint" />
            <mxPoint x="50" y="88" as="targetPoint" />
          </mxGeometry>
        </mxCell>
        <mxCell id="JRU_-GttZzj6qFbwlXtj-5" value="&lt;span style=&quot;font-size: 12px;&quot;&gt;Username string&lt;/span&gt;" style="text;html=1;align=left;verticalAlign=middle;whiteSpace=wrap;rounded=0;fontSize=16;" parent="5IkHLqueFjQLgWotuJ4o-40" vertex="1">
          <mxGeometry y="78" width="260" height="30" as="geometry" />
        </mxCell>
        <mxCell id="JRU_-GttZzj6qFbwlXtj-6" value="&lt;span style=&quot;font-size: 12px;&quot;&gt;password string&lt;/span&gt;" style="text;html=1;align=left;verticalAlign=middle;whiteSpace=wrap;rounded=0;fontSize=16;" parent="5IkHLqueFjQLgWotuJ4o-40" vertex="1">
          <mxGeometry y="108" width="260" height="30" as="geometry" />
        </mxCell>
        <mxCell id="JRU_-GttZzj6qFbwlXtj-0" value="&lt;span style=&quot;font-size: 12px;&quot;&gt;Chatroom rooms&lt;/span&gt;" style="text;html=1;align=left;verticalAlign=middle;whiteSpace=wrap;rounded=0;fontSize=16;" parent="5IkHLqueFjQLgWotuJ4o-40" vertex="1">
          <mxGeometry y="138" width="260" height="30" as="geometry" />
        </mxCell>
        <mxCell id="JRU_-GttZzj6qFbwlXtj-1" value="&lt;span style=&quot;font-size: 12px;&quot;&gt;Loglist: logs&lt;/span&gt;" style="text;html=1;align=left;verticalAlign=middle;whiteSpace=wrap;rounded=0;fontSize=16;" parent="5IkHLqueFjQLgWotuJ4o-40" vertex="1">
          <mxGeometry y="168" width="260" height="30" as="geometry" />
        </mxCell>
        <mxCell id="JRU_-GttZzj6qFbwlXtj-2" value="&lt;span style=&quot;font-size: 12px;&quot;&gt;loggedIn: Boolean&lt;/span&gt;" style="text;html=1;align=left;verticalAlign=middle;whiteSpace=wrap;rounded=0;fontSize=16;" parent="5IkHLqueFjQLgWotuJ4o-40" vertex="1">
          <mxGeometry y="198" width="260" height="30" as="geometry" />
        </mxCell>
        <mxCell id="JRU_-GttZzj6qFbwlXtj-11" value="&lt;span style=&quot;font-size: 12px;&quot;&gt;loggedOut: Boolean&lt;/span&gt;" style="text;html=1;align=left;verticalAlign=middle;whiteSpace=wrap;rounded=0;fontSize=16;" parent="5IkHLqueFjQLgWotuJ4o-40" vertex="1">
          <mxGeometry y="228" width="260" height="30" as="geometry" />
        </mxCell>
        <mxCell id="DMiKWM2iWxdaegkydrnz-1" value="messageGet.Status" style="text;html=1;align=left;verticalAlign=middle;whiteSpace=wrap;rounded=0;" parent="5IkHLqueFjQLgWotuJ4o-40" vertex="1">
          <mxGeometry y="258" width="260" height="30" as="geometry" />
        </mxCell>
        <mxCell id="eQqPCBkNnUNlGR5oBCC0-11" value="MsgType" style="text;html=1;align=left;verticalAlign=middle;whiteSpace=wrap;rounded=0;" parent="5IkHLqueFjQLgWotuJ4o-40" vertex="1">
          <mxGeometry y="288" width="260" height="30" as="geometry" />
        </mxCell>
        <mxCell id="eQqPCBkNnUNlGR5oBCC0-12" value="MsgStatus" style="text;html=1;align=left;verticalAlign=middle;whiteSpace=wrap;rounded=0;" parent="5IkHLqueFjQLgWotuJ4o-40" vertex="1">
          <mxGeometry y="318" width="260" height="30" as="geometry" />
        </mxCell>
        <mxCell id="eQqPCBkNnUNlGR5oBCC0-20" value="perms" style="text;html=1;align=left;verticalAlign=middle;whiteSpace=wrap;rounded=0;" parent="5IkHLqueFjQLgWotuJ4o-40" vertex="1">
          <mxGeometry y="348" width="260" height="30" as="geometry" />
        </mxCell>
        <mxCell id="eQqPCBkNnUNlGR5oBCC0-21" value="logMessages" style="text;html=1;align=left;verticalAlign=middle;whiteSpace=wrap;rounded=0;" parent="5IkHLqueFjQLgWotuJ4o-40" vertex="1">
          <mxGeometry y="378" width="260" height="30" as="geometry" />
        </mxCell>
        <mxCell id="GjMMJycVT3JO480gQ9QB-1" value="Server" style="swimlane;fontStyle=0;align=center;verticalAlign=top;childLayout=stackLayout;horizontal=1;startSize=26;horizontalStack=0;resizeParent=1;resizeLast=0;collapsible=1;marginBottom=0;rounded=0;shadow=0;strokeWidth=1;" parent="WIyWlLk6GJQsqaUBKTNV-1" vertex="1">
          <mxGeometry x="110" y="20" width="260" height="470" as="geometry">
            <mxRectangle x="550" y="140" width="160" height="26" as="alternateBounds" />
          </mxGeometry>
        </mxCell>
        <mxCell id="GjMMJycVT3JO480gQ9QB-2" value="Server: Seversocket" style="text;align=left;verticalAlign=top;spacingLeft=4;spacingRight=4;overflow=hidden;rotatable=0;points=[[0,0.5],[1,0.5]];portConstraint=eastwest;" parent="GjMMJycVT3JO480gQ9QB-1" vertex="1">
          <mxGeometry y="26" width="260" height="26" as="geometry" />
        </mxCell>
        <mxCell id="GjMMJycVT3JO480gQ9QB-3" value="clients: List&lt;Clients&gt;" style="text;align=left;verticalAlign=top;spacingLeft=4;spacingRight=4;overflow=hidden;rotatable=0;points=[[0,0.5],[1,0.5]];portConstraint=eastwest;rounded=0;shadow=0;html=0;" parent="GjMMJycVT3JO480gQ9QB-1" vertex="1">
          <mxGeometry y="52" width="260" height="26" as="geometry" />
        </mxCell>
        <mxCell id="naDoFR6z8gRt482fdG2E-1" value="&amp;nbsp;Date date" style="text;html=1;align=left;verticalAlign=middle;whiteSpace=wrap;rounded=0;" parent="GjMMJycVT3JO480gQ9QB-1" vertex="1">
          <mxGeometry y="78" width="260" height="32" as="geometry" />
        </mxCell>
        <mxCell id="GjMMJycVT3JO480gQ9QB-4" value="LogList: logs" style="text;align=left;verticalAlign=top;spacingLeft=4;spacingRight=4;overflow=hidden;rotatable=0;points=[[0,0.5],[1,0.5]];portConstraint=eastwest;rounded=0;shadow=0;html=0;" parent="GjMMJycVT3JO480gQ9QB-1" vertex="1">
          <mxGeometry y="110" width="260" height="26" as="geometry" />
        </mxCell>
        <mxCell id="JRU_-GttZzj6qFbwlXtj-9" value="" style="endArrow=none;html=1;rounded=0;fontSize=12;startSize=8;endSize=8;entryX=1.008;entryY=1;entryDx=0;entryDy=0;entryPerimeter=0;exitX=0;exitY=0;exitDx=0;exitDy=0;" parent="GjMMJycVT3JO480gQ9QB-1" target="GjMMJycVT3JO480gQ9QB-5" edge="1">
          <mxGeometry width="50" height="50" relative="1" as="geometry">
            <mxPoint x="6.821210263296962e-13" y="162" as="sourcePoint" />
            <mxPoint x="50" y="78" as="targetPoint" />
          </mxGeometry>
        </mxCell>
        <mxCell id="GjMMJycVT3JO480gQ9QB-5" value="Message message&#xa;&#xa;" style="text;align=left;verticalAlign=top;spacingLeft=4;spacingRight=4;overflow=hidden;rotatable=0;points=[[0,0.5],[1,0.5]];portConstraint=eastwest;rounded=0;shadow=0;html=0;" parent="GjMMJycVT3JO480gQ9QB-1" vertex="1">
          <mxGeometry y="136" width="260" height="26" as="geometry" />
        </mxCell>
        <mxCell id="JRU_-GttZzj6qFbwlXtj-4" value="&lt;font style=&quot;font-size: 12px;&quot;&gt;&amp;nbsp;stop()&lt;/font&gt;" style="text;html=1;align=left;verticalAlign=middle;whiteSpace=wrap;rounded=0;fontSize=16;" parent="GjMMJycVT3JO480gQ9QB-1" vertex="1">
          <mxGeometry y="162" width="260" height="30" as="geometry" />
        </mxCell>
        <mxCell id="eQqPCBkNnUNlGR5oBCC0-1" value="ClientHandler" style="text;html=1;align=left;verticalAlign=middle;whiteSpace=wrap;rounded=0;" parent="GjMMJycVT3JO480gQ9QB-1" vertex="1">
          <mxGeometry y="192" width="260" height="30" as="geometry" />
        </mxCell>
        <mxCell id="eQqPCBkNnUNlGR5oBCC0-2" value="Chatrooms()" style="text;html=1;align=left;verticalAlign=middle;whiteSpace=wrap;rounded=0;" parent="GjMMJycVT3JO480gQ9QB-1" vertex="1">
          <mxGeometry y="222" width="260" height="30" as="geometry" />
        </mxCell>
        <mxCell id="eQqPCBkNnUNlGR5oBCC0-3" value="loggedIn/loggedOut Boolean" style="text;html=1;align=left;verticalAlign=middle;whiteSpace=wrap;rounded=0;" parent="GjMMJycVT3JO480gQ9QB-1" vertex="1">
          <mxGeometry y="252" width="260" height="30" as="geometry" />
        </mxCell>
        <mxCell id="eQqPCBkNnUNlGR5oBCC0-5" value="&amp;lt;LogEntry&amp;gt; getRoomlog" style="text;html=1;align=left;verticalAlign=middle;whiteSpace=wrap;rounded=0;" parent="GjMMJycVT3JO480gQ9QB-1" vertex="1">
          <mxGeometry y="282" width="260" height="30" as="geometry" />
        </mxCell>
        <mxCell id="eQqPCBkNnUNlGR5oBCC0-6" value="User users" style="text;html=1;align=left;verticalAlign=middle;whiteSpace=wrap;rounded=0;" parent="GjMMJycVT3JO480gQ9QB-1" vertex="1">
          <mxGeometry y="312" width="260" height="30" as="geometry" />
        </mxCell>
        <mxCell id="eQqPCBkNnUNlGR5oBCC0-7" value="messageGet" style="text;html=1;align=left;verticalAlign=middle;whiteSpace=wrap;rounded=0;" parent="GjMMJycVT3JO480gQ9QB-1" vertex="1">
          <mxGeometry y="342" width="260" height="30" as="geometry" />
        </mxCell>
        <mxCell id="eQqPCBkNnUNlGR5oBCC0-8" value="messageSend" style="text;html=1;align=left;verticalAlign=middle;whiteSpace=wrap;rounded=0;" parent="GjMMJycVT3JO480gQ9QB-1" vertex="1">
          <mxGeometry y="372" width="260" height="30" as="geometry" />
        </mxCell>
        <mxCell id="eQqPCBkNnUNlGR5oBCC0-9" value="getUsername()" style="text;html=1;align=left;verticalAlign=middle;whiteSpace=wrap;rounded=0;" parent="GjMMJycVT3JO480gQ9QB-1" vertex="1">
          <mxGeometry y="402" width="260" height="30" as="geometry" />
        </mxCell>
        <mxCell id="9mmmaThWbL408jvLuibE-9" value="Admin" style="swimlane;fontStyle=0;align=center;verticalAlign=top;childLayout=stackLayout;horizontal=1;startSize=26;horizontalStack=0;resizeParent=1;resizeLast=0;collapsible=1;marginBottom=0;rounded=0;shadow=0;strokeWidth=1;" parent="WIyWlLk6GJQsqaUBKTNV-1" vertex="1">
          <mxGeometry x="480" y="560" width="260" height="300" as="geometry">
            <mxRectangle x="550" y="140" width="160" height="26" as="alternateBounds" />
          </mxGeometry>
        </mxCell>
        <mxCell id="9mmmaThWbL408jvLuibE-10" value="UserID: Int" style="text;align=left;verticalAlign=top;spacingLeft=4;spacingRight=4;overflow=hidden;rotatable=0;points=[[0,0.5],[1,0.5]];portConstraint=eastwest;" parent="9mmmaThWbL408jvLuibE-9" vertex="1">
          <mxGeometry y="26" width="260" height="26" as="geometry" />
        </mxCell>
        <mxCell id="9mmmaThWbL408jvLuibE-11" value="Contact list" style="text;align=left;verticalAlign=top;spacingLeft=4;spacingRight=4;overflow=hidden;rotatable=0;points=[[0,0.5],[1,0.5]];portConstraint=eastwest;rounded=0;shadow=0;html=0;" parent="9mmmaThWbL408jvLuibE-9" vertex="1">
          <mxGeometry y="52" width="260" height="26" as="geometry" />
        </mxCell>
        <mxCell id="9mmmaThWbL408jvLuibE-12" value="&lt;font style=&quot;font-size: 12px;&quot;&gt;&amp;nbsp;username: String&lt;/font&gt;" style="text;html=1;align=left;verticalAlign=middle;whiteSpace=wrap;rounded=0;fontSize=16;" parent="9mmmaThWbL408jvLuibE-9" vertex="1">
          <mxGeometry y="78" width="260" height="30" as="geometry" />
        </mxCell>
        <mxCell id="9mmmaThWbL408jvLuibE-13" value="" style="endArrow=none;html=1;rounded=0;fontSize=12;startSize=8;endSize=8;entryX=1;entryY=0;entryDx=0;entryDy=0;" parent="9mmmaThWbL408jvLuibE-9" target="9mmmaThWbL408jvLuibE-15" edge="1">
          <mxGeometry width="50" height="50" relative="1" as="geometry">
            <mxPoint y="138" as="sourcePoint" />
            <mxPoint x="50" y="88" as="targetPoint" />
          </mxGeometry>
        </mxCell>
        <mxCell id="9mmmaThWbL408jvLuibE-14" value="&lt;font style=&quot;font-size: 12px;&quot;&gt;&amp;nbsp;password: String&lt;/font&gt;" style="text;html=1;align=left;verticalAlign=middle;whiteSpace=wrap;rounded=0;fontSize=16;" parent="9mmmaThWbL408jvLuibE-9" vertex="1">
          <mxGeometry y="108" width="260" height="30" as="geometry" />
        </mxCell>
        <mxCell id="9mmmaThWbL408jvLuibE-15" value="&lt;font style=&quot;font-size: 12px;&quot;&gt;&amp;nbsp;sendMessage()&lt;/font&gt;" style="text;html=1;align=left;verticalAlign=middle;whiteSpace=wrap;rounded=0;fontSize=16;" parent="9mmmaThWbL408jvLuibE-9" vertex="1">
          <mxGeometry y="138" width="260" height="30" as="geometry" />
        </mxCell>
        <mxCell id="9mmmaThWbL408jvLuibE-16" value="&lt;font style=&quot;font-size: 12px;&quot;&gt;&amp;nbsp;recieveMessage()&lt;/font&gt;" style="text;html=1;align=left;verticalAlign=middle;whiteSpace=wrap;rounded=0;fontSize=16;" parent="9mmmaThWbL408jvLuibE-9" vertex="1">
          <mxGeometry y="168" width="260" height="30" as="geometry" />
        </mxCell>
        <mxCell id="9mmmaThWbL408jvLuibE-17" value="&lt;font style=&quot;font-size: 12px;&quot;&gt;&amp;nbsp;updateStatus()&lt;/font&gt;" style="text;html=1;align=left;verticalAlign=middle;whiteSpace=wrap;rounded=0;fontSize=16;" parent="9mmmaThWbL408jvLuibE-9" vertex="1">
          <mxGeometry y="198" width="260" height="30" as="geometry" />
        </mxCell>
        <mxCell id="9mmmaThWbL408jvLuibE-18" value="&amp;nbsp;manageUsers()" style="text;html=1;align=left;verticalAlign=middle;whiteSpace=wrap;rounded=0;" parent="9mmmaThWbL408jvLuibE-9" vertex="1">
          <mxGeometry y="228" width="260" height="30" as="geometry" />
        </mxCell>
        <mxCell id="9mmmaThWbL408jvLuibE-19" value="&amp;nbsp;viewLogs()" style="text;html=1;align=left;verticalAlign=middle;whiteSpace=wrap;rounded=0;" parent="9mmmaThWbL408jvLuibE-9" vertex="1">
          <mxGeometry y="258" width="260" height="30" as="geometry" />
        </mxCell>
        <mxCell id="9mmmaThWbL408jvLuibE-0" value="User" style="swimlane;fontStyle=0;align=center;verticalAlign=top;childLayout=stackLayout;horizontal=1;startSize=26;horizontalStack=0;resizeParent=1;resizeLast=0;collapsible=1;marginBottom=0;rounded=0;shadow=0;strokeWidth=1;" parent="WIyWlLk6GJQsqaUBKTNV-1" vertex="1">
          <mxGeometry x="100" y="570" width="260" height="440" as="geometry">
            <mxRectangle x="550" y="140" width="160" height="26" as="alternateBounds" />
          </mxGeometry>
        </mxCell>
        <mxCell id="9mmmaThWbL408jvLuibE-1" value="private UserID: string" style="text;align=left;verticalAlign=top;spacingLeft=4;spacingRight=4;overflow=hidden;rotatable=0;points=[[0,0.5],[1,0.5]];portConstraint=eastwest;" parent="9mmmaThWbL408jvLuibE-0" vertex="1">
          <mxGeometry y="26" width="260" height="26" as="geometry" />
        </mxCell>
        <mxCell id="9mmmaThWbL408jvLuibE-2" value="private username/password string" style="text;align=left;verticalAlign=top;spacingLeft=4;spacingRight=4;overflow=hidden;rotatable=0;points=[[0,0.5],[1,0.5]];portConstraint=eastwest;rounded=0;shadow=0;html=0;" parent="9mmmaThWbL408jvLuibE-0" vertex="1">
          <mxGeometry y="52" width="260" height="26" as="geometry" />
        </mxCell>
        <mxCell id="9mmmaThWbL408jvLuibE-3" value="&lt;span style=&quot;font-size: 12px;&quot;&gt;Chatroom &amp;lt;List&amp;gt;&lt;/span&gt;" style="text;html=1;align=left;verticalAlign=middle;whiteSpace=wrap;rounded=0;fontSize=16;" parent="9mmmaThWbL408jvLuibE-0" vertex="1">
          <mxGeometry y="78" width="260" height="30" as="geometry" />
        </mxCell>
        <mxCell id="9mmmaThWbL408jvLuibE-4" value="" style="endArrow=none;html=1;rounded=0;fontSize=12;startSize=8;endSize=8;entryX=1;entryY=0;entryDx=0;entryDy=0;" parent="9mmmaThWbL408jvLuibE-0" target="9mmmaThWbL408jvLuibE-6" edge="1">
          <mxGeometry width="50" height="50" relative="1" as="geometry">
            <mxPoint y="138" as="sourcePoint" />
            <mxPoint x="50" y="88" as="targetPoint" />
          </mxGeometry>
        </mxCell>
        <mxCell id="9mmmaThWbL408jvLuibE-5" value="&lt;span style=&quot;font-size: 12px;&quot;&gt;Online/Offline Status&lt;/span&gt;" style="text;html=1;align=left;verticalAlign=middle;whiteSpace=wrap;rounded=0;fontSize=16;" parent="9mmmaThWbL408jvLuibE-0" vertex="1">
          <mxGeometry y="108" width="260" height="30" as="geometry" />
        </mxCell>
        <mxCell id="9mmmaThWbL408jvLuibE-6" value="&lt;span style=&quot;font-size: 12px;&quot;&gt;getOnline()&lt;/span&gt;" style="text;html=1;align=left;verticalAlign=middle;whiteSpace=wrap;rounded=0;fontSize=16;" parent="9mmmaThWbL408jvLuibE-0" vertex="1">
          <mxGeometry y="138" width="260" height="30" as="geometry" />
        </mxCell>
        <mxCell id="9mmmaThWbL408jvLuibE-7" value="&lt;span style=&quot;font-size: 12px;&quot;&gt;getPassword()&lt;/span&gt;" style="text;html=1;align=left;verticalAlign=middle;whiteSpace=wrap;rounded=0;fontSize=16;" parent="9mmmaThWbL408jvLuibE-0" vertex="1">
          <mxGeometry y="168" width="260" height="30" as="geometry" />
        </mxCell>
        <mxCell id="9mmmaThWbL408jvLuibE-8" value="&lt;span style=&quot;font-size: 12px;&quot;&gt;getAdmin()&lt;/span&gt;" style="text;html=1;align=left;verticalAlign=middle;whiteSpace=wrap;rounded=0;fontSize=16;" parent="9mmmaThWbL408jvLuibE-0" vertex="1">
          <mxGeometry y="198" width="260" height="30" as="geometry" />
        </mxCell>
        <mxCell id="eQqPCBkNnUNlGR5oBCC0-13" value="getUsername()" style="text;html=1;align=left;verticalAlign=middle;whiteSpace=wrap;rounded=0;" parent="9mmmaThWbL408jvLuibE-0" vertex="1">
          <mxGeometry y="228" width="260" height="30" as="geometry" />
        </mxCell>
        <mxCell id="eQqPCBkNnUNlGR5oBCC0-14" value="getUserID()" style="text;html=1;align=left;verticalAlign=middle;whiteSpace=wrap;rounded=0;" parent="9mmmaThWbL408jvLuibE-0" vertex="1">
          <mxGeometry y="258" width="260" height="30" as="geometry" />
        </mxCell>
        <mxCell id="eQqPCBkNnUNlGR5oBCC0-15" value="&lt;span style=&quot;&quot;&gt;setOnline()&lt;/span&gt;" style="text;html=1;align=left;verticalAlign=middle;whiteSpace=wrap;rounded=0;" parent="9mmmaThWbL408jvLuibE-0" vertex="1">
          <mxGeometry y="288" width="260" height="30" as="geometry" />
        </mxCell>
        <mxCell id="eQqPCBkNnUNlGR5oBCC0-16" value="setPassword()" style="text;html=1;align=left;verticalAlign=middle;whiteSpace=wrap;rounded=0;" parent="9mmmaThWbL408jvLuibE-0" vertex="1">
          <mxGeometry y="318" width="260" height="30" as="geometry" />
        </mxCell>
        <mxCell id="eQqPCBkNnUNlGR5oBCC0-17" value="setAdmin()" style="text;html=1;align=left;verticalAlign=middle;whiteSpace=wrap;rounded=0;" parent="9mmmaThWbL408jvLuibE-0" vertex="1">
          <mxGeometry y="348" width="260" height="30" as="geometry" />
        </mxCell>
        <mxCell id="eQqPCBkNnUNlGR5oBCC0-18" value="setUsername" style="text;html=1;align=left;verticalAlign=middle;whiteSpace=wrap;rounded=0;" parent="9mmmaThWbL408jvLuibE-0" vertex="1">
          <mxGeometry y="378" width="260" height="30" as="geometry" />
        </mxCell>
        <mxCell id="eQqPCBkNnUNlGR5oBCC0-19" value="getChatrooms" style="text;html=1;align=left;verticalAlign=middle;whiteSpace=wrap;rounded=0;" parent="9mmmaThWbL408jvLuibE-0" vertex="1">
          <mxGeometry y="408" width="260" height="30" as="geometry" />
        </mxCell>
      </root>
    </mxGraphModel>
  </diagram>
  <diagram id="f_Qy5Q2W4Xnj5wpOl3_H" name="Page-3">
    <mxGraphModel dx="1290" dy="569" grid="1" gridSize="10" guides="1" tooltips="1" connect="1" arrows="1" fold="1" page="1" pageScale="1" pageWidth="1654" pageHeight="1169" math="0" shadow="0">
      <root>
        <mxCell id="0" />
        <mxCell id="1" parent="0" />
        <mxCell id="HUu-bKfJvv8z3M91gBCA-110" value="" style="html=1;whiteSpace=wrap;" parent="1" vertex="1">
          <mxGeometry x="870" y="138" width="680" height="470" as="geometry" />
        </mxCell>
        <mxCell id="HUu-bKfJvv8z3M91gBCA-109" value="" style="html=1;whiteSpace=wrap;" parent="1" vertex="1">
          <mxGeometry x="220" y="200" width="550" height="360" as="geometry" />
        </mxCell>
        <mxCell id="HUu-bKfJvv8z3M91gBCA-2" value="GUI" style="swimlane;fontStyle=1;align=center;verticalAlign=top;childLayout=stackLayout;horizontal=1;startSize=26;horizontalStack=0;resizeParent=1;resizeParentMax=0;resizeLast=0;collapsible=1;marginBottom=0;whiteSpace=wrap;html=1;" parent="1" vertex="1">
          <mxGeometry x="907" y="188" width="160" height="86" as="geometry" />
        </mxCell>
        <mxCell id="HUu-bKfJvv8z3M91gBCA-3" value="+ field: type" style="text;strokeColor=none;fillColor=none;align=left;verticalAlign=top;spacingLeft=4;spacingRight=4;overflow=hidden;rotatable=0;points=[[0,0.5],[1,0.5]];portConstraint=eastwest;whiteSpace=wrap;html=1;" parent="HUu-bKfJvv8z3M91gBCA-2" vertex="1">
          <mxGeometry y="26" width="160" height="26" as="geometry" />
        </mxCell>
        <mxCell id="HUu-bKfJvv8z3M91gBCA-4" value="" style="line;strokeWidth=1;fillColor=none;align=left;verticalAlign=middle;spacingTop=-1;spacingLeft=3;spacingRight=3;rotatable=0;labelPosition=right;points=[];portConstraint=eastwest;strokeColor=inherit;" parent="HUu-bKfJvv8z3M91gBCA-2" vertex="1">
          <mxGeometry y="52" width="160" height="8" as="geometry" />
        </mxCell>
        <mxCell id="HUu-bKfJvv8z3M91gBCA-5" value="+ method(type): type" style="text;strokeColor=none;fillColor=none;align=left;verticalAlign=top;spacingLeft=4;spacingRight=4;overflow=hidden;rotatable=0;points=[[0,0.5],[1,0.5]];portConstraint=eastwest;whiteSpace=wrap;html=1;" parent="HUu-bKfJvv8z3M91gBCA-2" vertex="1">
          <mxGeometry y="60" width="160" height="26" as="geometry" />
        </mxCell>
        <mxCell id="HUu-bKfJvv8z3M91gBCA-6" value="Model" style="swimlane;fontStyle=1;align=center;verticalAlign=top;childLayout=stackLayout;horizontal=1;startSize=26;horizontalStack=0;resizeParent=1;resizeParentMax=0;resizeLast=0;collapsible=1;marginBottom=0;whiteSpace=wrap;html=1;" parent="1" vertex="1">
          <mxGeometry x="1367" y="188" width="160" height="86" as="geometry" />
        </mxCell>
        <mxCell id="HUu-bKfJvv8z3M91gBCA-7" value="+ field: type" style="text;strokeColor=none;fillColor=none;align=left;verticalAlign=top;spacingLeft=4;spacingRight=4;overflow=hidden;rotatable=0;points=[[0,0.5],[1,0.5]];portConstraint=eastwest;whiteSpace=wrap;html=1;" parent="HUu-bKfJvv8z3M91gBCA-6" vertex="1">
          <mxGeometry y="26" width="160" height="26" as="geometry" />
        </mxCell>
        <mxCell id="HUu-bKfJvv8z3M91gBCA-8" value="" style="line;strokeWidth=1;fillColor=none;align=left;verticalAlign=middle;spacingTop=-1;spacingLeft=3;spacingRight=3;rotatable=0;labelPosition=right;points=[];portConstraint=eastwest;strokeColor=inherit;" parent="HUu-bKfJvv8z3M91gBCA-6" vertex="1">
          <mxGeometry y="52" width="160" height="8" as="geometry" />
        </mxCell>
        <mxCell id="HUu-bKfJvv8z3M91gBCA-9" value="+ method(type): type" style="text;strokeColor=none;fillColor=none;align=left;verticalAlign=top;spacingLeft=4;spacingRight=4;overflow=hidden;rotatable=0;points=[[0,0.5],[1,0.5]];portConstraint=eastwest;whiteSpace=wrap;html=1;" parent="HUu-bKfJvv8z3M91gBCA-6" vertex="1">
          <mxGeometry y="60" width="160" height="26" as="geometry" />
        </mxCell>
        <mxCell id="HUu-bKfJvv8z3M91gBCA-10" value="Controller" style="swimlane;fontStyle=1;align=center;verticalAlign=top;childLayout=stackLayout;horizontal=1;startSize=26;horizontalStack=0;resizeParent=1;resizeParentMax=0;resizeLast=0;collapsible=1;marginBottom=0;whiteSpace=wrap;html=1;" parent="1" vertex="1">
          <mxGeometry x="1117" y="308" width="160" height="86" as="geometry" />
        </mxCell>
        <mxCell id="HUu-bKfJvv8z3M91gBCA-11" value="+ field: type" style="text;strokeColor=none;fillColor=none;align=left;verticalAlign=top;spacingLeft=4;spacingRight=4;overflow=hidden;rotatable=0;points=[[0,0.5],[1,0.5]];portConstraint=eastwest;whiteSpace=wrap;html=1;" parent="HUu-bKfJvv8z3M91gBCA-10" vertex="1">
          <mxGeometry y="26" width="160" height="26" as="geometry" />
        </mxCell>
        <mxCell id="HUu-bKfJvv8z3M91gBCA-12" value="" style="line;strokeWidth=1;fillColor=none;align=left;verticalAlign=middle;spacingTop=-1;spacingLeft=3;spacingRight=3;rotatable=0;labelPosition=right;points=[];portConstraint=eastwest;strokeColor=inherit;" parent="HUu-bKfJvv8z3M91gBCA-10" vertex="1">
          <mxGeometry y="52" width="160" height="8" as="geometry" />
        </mxCell>
        <mxCell id="HUu-bKfJvv8z3M91gBCA-13" value="+ method(type): type" style="text;strokeColor=none;fillColor=none;align=left;verticalAlign=top;spacingLeft=4;spacingRight=4;overflow=hidden;rotatable=0;points=[[0,0.5],[1,0.5]];portConstraint=eastwest;whiteSpace=wrap;html=1;" parent="HUu-bKfJvv8z3M91gBCA-10" vertex="1">
          <mxGeometry y="60" width="160" height="26" as="geometry" />
        </mxCell>
        <mxCell id="HUu-bKfJvv8z3M91gBCA-62" value="" style="endArrow=none;html=1;rounded=0;exitX=0.5;exitY=0;exitDx=0;exitDy=0;entryX=0.5;entryY=1.038;entryDx=0;entryDy=0;entryPerimeter=0;" parent="1" source="HUu-bKfJvv8z3M91gBCA-10" edge="1">
          <mxGeometry relative="1" as="geometry">
            <mxPoint x="1446.5" y="327" as="sourcePoint" />
            <mxPoint x="1446.5" y="274" as="targetPoint" />
          </mxGeometry>
        </mxCell>
        <mxCell id="HUu-bKfJvv8z3M91gBCA-63" value="1" style="edgeLabel;resizable=0;html=1;align=left;verticalAlign=bottom;" parent="HUu-bKfJvv8z3M91gBCA-62" connectable="0" vertex="1">
          <mxGeometry x="-1" relative="1" as="geometry">
            <mxPoint x="40" y="-10" as="offset" />
          </mxGeometry>
        </mxCell>
        <mxCell id="HUu-bKfJvv8z3M91gBCA-64" value="1" style="edgeLabel;resizable=0;html=1;align=right;verticalAlign=bottom;" parent="HUu-bKfJvv8z3M91gBCA-62" connectable="0" vertex="1">
          <mxGeometry x="1" relative="1" as="geometry">
            <mxPoint x="-10" y="23" as="offset" />
          </mxGeometry>
        </mxCell>
        <mxCell id="HUu-bKfJvv8z3M91gBCA-65" value="" style="endArrow=none;html=1;rounded=0;entryX=0.444;entryY=1.038;entryDx=0;entryDy=0;entryPerimeter=0;exitX=0.5;exitY=0;exitDx=0;exitDy=0;" parent="1" source="HUu-bKfJvv8z3M91gBCA-10" target="HUu-bKfJvv8z3M91gBCA-5" edge="1">
          <mxGeometry relative="1" as="geometry">
            <mxPoint x="1152.44" y="288" as="sourcePoint" />
            <mxPoint x="937" y="288.49800000000005" as="targetPoint" />
          </mxGeometry>
        </mxCell>
        <mxCell id="HUu-bKfJvv8z3M91gBCA-66" value="1" style="edgeLabel;resizable=0;html=1;align=left;verticalAlign=bottom;" parent="HUu-bKfJvv8z3M91gBCA-65" connectable="0" vertex="1">
          <mxGeometry x="-1" relative="1" as="geometry">
            <mxPoint x="-70" y="-10" as="offset" />
          </mxGeometry>
        </mxCell>
        <mxCell id="HUu-bKfJvv8z3M91gBCA-67" value="1" style="edgeLabel;resizable=0;html=1;align=right;verticalAlign=bottom;" parent="HUu-bKfJvv8z3M91gBCA-65" connectable="0" vertex="1">
          <mxGeometry x="1" relative="1" as="geometry">
            <mxPoint x="9" y="21" as="offset" />
          </mxGeometry>
        </mxCell>
        <mxCell id="HUu-bKfJvv8z3M91gBCA-68" value="Server" style="html=1;whiteSpace=wrap;" parent="1" vertex="1">
          <mxGeometry x="10" y="348" width="110" height="50" as="geometry" />
        </mxCell>
        <mxCell id="HUu-bKfJvv8z3M91gBCA-72" value="Client Application" style="text;align=center;fontStyle=1;verticalAlign=middle;spacingLeft=3;spacingRight=3;strokeColor=none;rotatable=0;points=[[0,0.5],[1,0.5]];portConstraint=eastwest;html=1;" parent="1" vertex="1">
          <mxGeometry x="1167" y="148" width="80" height="26" as="geometry" />
        </mxCell>
        <mxCell id="HUu-bKfJvv8z3M91gBCA-81" value="&lt;p style=&quot;margin:0px;margin-top:4px;text-align:center;&quot;&gt;&lt;br&gt;&lt;b&gt;Message&lt;/b&gt;&lt;/p&gt;" style="verticalAlign=top;align=left;overflow=fill;html=1;whiteSpace=wrap;" parent="1" vertex="1">
          <mxGeometry x="420" y="340" width="140" height="60" as="geometry" />
        </mxCell>
        <mxCell id="HUu-bKfJvv8z3M91gBCA-102" style="rounded=0;orthogonalLoop=1;jettySize=auto;html=1;exitX=0.5;exitY=0;exitDx=0;exitDy=0;entryX=0.5;entryY=1;entryDx=0;entryDy=0;" parent="1" source="HUu-bKfJvv8z3M91gBCA-82" target="HUu-bKfJvv8z3M91gBCA-99" edge="1">
          <mxGeometry relative="1" as="geometry" />
        </mxCell>
        <mxCell id="HUu-bKfJvv8z3M91gBCA-82" value="&lt;p style=&quot;margin:0px;margin-top:4px;text-align:center;&quot;&gt;&lt;br&gt;&lt;b&gt;Normal User&lt;/b&gt;&lt;/p&gt;" style="verticalAlign=top;align=left;overflow=fill;html=1;whiteSpace=wrap;" parent="1" vertex="1">
          <mxGeometry x="1002" y="538" width="140" height="60" as="geometry" />
        </mxCell>
        <mxCell id="HUu-bKfJvv8z3M91gBCA-103" style="rounded=0;orthogonalLoop=1;jettySize=auto;html=1;exitX=0.5;exitY=0;exitDx=0;exitDy=0;entryX=0.5;entryY=1;entryDx=0;entryDy=0;" parent="1" source="HUu-bKfJvv8z3M91gBCA-83" target="HUu-bKfJvv8z3M91gBCA-99" edge="1">
          <mxGeometry relative="1" as="geometry" />
        </mxCell>
        <mxCell id="HUu-bKfJvv8z3M91gBCA-83" value="&lt;p style=&quot;margin:0px;margin-top:4px;text-align:center;&quot;&gt;&lt;br&gt;&lt;b&gt;IT user&lt;/b&gt;&lt;/p&gt;" style="verticalAlign=top;align=left;overflow=fill;html=1;whiteSpace=wrap;" parent="1" vertex="1">
          <mxGeometry x="1252" y="538" width="140" height="60" as="geometry" />
        </mxCell>
        <mxCell id="HUu-bKfJvv8z3M91gBCA-84" value="&lt;p style=&quot;margin:0px;margin-top:4px;text-align:center;&quot;&gt;&lt;br&gt;&lt;b&gt;Group Chat Message&lt;/b&gt;&lt;/p&gt;" style="verticalAlign=top;align=left;overflow=fill;html=1;whiteSpace=wrap;" parent="1" vertex="1">
          <mxGeometry x="250" y="450" width="140" height="60" as="geometry" />
        </mxCell>
        <mxCell id="HUu-bKfJvv8z3M91gBCA-85" value="&lt;p style=&quot;margin:0px;margin-top:4px;text-align:center;&quot;&gt;&lt;br&gt;&lt;b&gt;Contact message&lt;/b&gt;&lt;/p&gt;" style="verticalAlign=top;align=left;overflow=fill;html=1;whiteSpace=wrap;" parent="1" vertex="1">
          <mxGeometry x="420" y="450" width="140" height="60" as="geometry" />
        </mxCell>
        <mxCell id="HUu-bKfJvv8z3M91gBCA-86" value="&lt;p style=&quot;margin:0px;margin-top:4px;text-align:center;&quot;&gt;&lt;br&gt;&lt;b&gt;Online Status Message&lt;/b&gt;&lt;/p&gt;" style="verticalAlign=top;align=left;overflow=fill;html=1;whiteSpace=wrap;" parent="1" vertex="1">
          <mxGeometry x="590" y="450" width="140" height="60" as="geometry" />
        </mxCell>
        <mxCell id="HUu-bKfJvv8z3M91gBCA-87" value="&lt;p style=&quot;margin:0px;margin-top:4px;text-align:center;&quot;&gt;&lt;b&gt;&lt;br&gt;&lt;/b&gt;&lt;/p&gt;&lt;p style=&quot;margin:0px;margin-top:4px;text-align:center;&quot;&gt;&lt;b&gt;Login/Logout&lt;/b&gt;&lt;/p&gt;" style="verticalAlign=top;align=left;overflow=fill;html=1;whiteSpace=wrap;" parent="1" vertex="1">
          <mxGeometry x="240" y="250" width="140" height="60" as="geometry" />
        </mxCell>
        <mxCell id="HUu-bKfJvv8z3M91gBCA-88" value="&lt;p style=&quot;margin:0px;margin-top:4px;text-align:center;&quot;&gt;&lt;br&gt;&lt;b&gt;Direct Message&lt;/b&gt;&lt;/p&gt;" style="verticalAlign=top;align=left;overflow=fill;html=1;whiteSpace=wrap;" parent="1" vertex="1">
          <mxGeometry x="590" y="250" width="140" height="60" as="geometry" />
        </mxCell>
        <mxCell id="HUu-bKfJvv8z3M91gBCA-89" value="Extends" style="endArrow=block;endSize=16;endFill=0;html=1;rounded=0;entryX=-0.007;entryY=0.375;entryDx=0;entryDy=0;entryPerimeter=0;exitX=0.5;exitY=1;exitDx=0;exitDy=0;" parent="1" source="HUu-bKfJvv8z3M91gBCA-87" target="HUu-bKfJvv8z3M91gBCA-81" edge="1">
          <mxGeometry width="160" relative="1" as="geometry">
            <mxPoint x="320" y="320" as="sourcePoint" />
            <mxPoint x="480" y="320" as="targetPoint" />
          </mxGeometry>
        </mxCell>
        <mxCell id="HUu-bKfJvv8z3M91gBCA-90" value="Extends" style="endArrow=block;endSize=16;endFill=0;html=1;rounded=0;exitX=0.5;exitY=1;exitDx=0;exitDy=0;" parent="1" source="HUu-bKfJvv8z3M91gBCA-88" target="HUu-bKfJvv8z3M91gBCA-81" edge="1">
          <mxGeometry width="160" relative="1" as="geometry">
            <mxPoint x="610" y="360" as="sourcePoint" />
            <mxPoint x="770" y="360" as="targetPoint" />
          </mxGeometry>
        </mxCell>
        <mxCell id="HUu-bKfJvv8z3M91gBCA-91" value="Extends" style="endArrow=block;endSize=16;endFill=0;html=1;rounded=0;exitX=0.5;exitY=0;exitDx=0;exitDy=0;entryX=0.5;entryY=1;entryDx=0;entryDy=0;" parent="1" source="HUu-bKfJvv8z3M91gBCA-84" target="HUu-bKfJvv8z3M91gBCA-81" edge="1">
          <mxGeometry width="160" relative="1" as="geometry">
            <mxPoint x="620" y="370" as="sourcePoint" />
            <mxPoint x="780" y="370" as="targetPoint" />
          </mxGeometry>
        </mxCell>
        <mxCell id="HUu-bKfJvv8z3M91gBCA-92" value="Extends" style="endArrow=block;endSize=16;endFill=0;html=1;rounded=0;exitX=0.5;exitY=0;exitDx=0;exitDy=0;entryX=0.5;entryY=1;entryDx=0;entryDy=0;" parent="1" source="HUu-bKfJvv8z3M91gBCA-85" target="HUu-bKfJvv8z3M91gBCA-81" edge="1">
          <mxGeometry width="160" relative="1" as="geometry">
            <mxPoint x="630" y="380" as="sourcePoint" />
            <mxPoint x="790" y="380" as="targetPoint" />
          </mxGeometry>
        </mxCell>
        <mxCell id="HUu-bKfJvv8z3M91gBCA-93" value="Extends" style="endArrow=block;endSize=16;endFill=0;html=1;rounded=0;exitX=0.5;exitY=0;exitDx=0;exitDy=0;entryX=0.5;entryY=1;entryDx=0;entryDy=0;" parent="1" source="HUu-bKfJvv8z3M91gBCA-86" target="HUu-bKfJvv8z3M91gBCA-81" edge="1">
          <mxGeometry width="160" relative="1" as="geometry">
            <mxPoint x="640" y="390" as="sourcePoint" />
            <mxPoint x="800" y="390" as="targetPoint" />
          </mxGeometry>
        </mxCell>
        <mxCell id="HUu-bKfJvv8z3M91gBCA-99" value="&lt;b&gt;User&lt;/b&gt;" style="html=1;whiteSpace=wrap;" parent="1" vertex="1">
          <mxGeometry x="1142" y="458" width="110" height="50" as="geometry" />
        </mxCell>
        <mxCell id="HUu-bKfJvv8z3M91gBCA-101" value="Extends" style="endArrow=block;endSize=16;endFill=0;html=1;rounded=0;entryX=1;entryY=0.5;entryDx=0;entryDy=0;exitX=0;exitY=0.5;exitDx=0;exitDy=0;" parent="1" source="HUu-bKfJvv8z3M91gBCA-83" target="HUu-bKfJvv8z3M91gBCA-82" edge="1">
          <mxGeometry width="160" relative="1" as="geometry">
            <mxPoint x="1082" y="548" as="sourcePoint" />
            <mxPoint x="1207" y="518" as="targetPoint" />
          </mxGeometry>
        </mxCell>
        <mxCell id="HUu-bKfJvv8z3M91gBCA-106" value="" style="endArrow=none;html=1;edgeStyle=orthogonalEdgeStyle;rounded=0;entryX=0.5;entryY=0.962;entryDx=0;entryDy=0;entryPerimeter=0;exitX=0.5;exitY=0;exitDx=0;exitDy=0;" parent="1" source="HUu-bKfJvv8z3M91gBCA-99" target="HUu-bKfJvv8z3M91gBCA-13" edge="1">
          <mxGeometry relative="1" as="geometry">
            <mxPoint x="1187" y="448" as="sourcePoint" />
            <mxPoint x="1347" y="448" as="targetPoint" />
          </mxGeometry>
        </mxCell>
        <mxCell id="HUu-bKfJvv8z3M91gBCA-107" value="1" style="edgeLabel;resizable=0;html=1;align=left;verticalAlign=bottom;" parent="HUu-bKfJvv8z3M91gBCA-106" connectable="0" vertex="1">
          <mxGeometry x="-1" relative="1" as="geometry">
            <mxPoint as="offset" />
          </mxGeometry>
        </mxCell>
        <mxCell id="HUu-bKfJvv8z3M91gBCA-108" value="1" style="edgeLabel;resizable=0;html=1;align=right;verticalAlign=bottom;" parent="HUu-bKfJvv8z3M91gBCA-106" connectable="0" vertex="1">
          <mxGeometry x="1" relative="1" as="geometry">
            <mxPoint y="25" as="offset" />
          </mxGeometry>
        </mxCell>
        <mxCell id="HUu-bKfJvv8z3M91gBCA-111" value="" style="endArrow=none;html=1;edgeStyle=orthogonalEdgeStyle;rounded=0;entryX=0.002;entryY=0.481;entryDx=0;entryDy=0;entryPerimeter=0;exitX=1;exitY=0.5;exitDx=0;exitDy=0;" parent="1" source="HUu-bKfJvv8z3M91gBCA-68" target="HUu-bKfJvv8z3M91gBCA-109" edge="1">
          <mxGeometry relative="1" as="geometry">
            <mxPoint x="110" y="370" as="sourcePoint" />
            <mxPoint x="280" y="374.5" as="targetPoint" />
          </mxGeometry>
        </mxCell>
        <mxCell id="HUu-bKfJvv8z3M91gBCA-112" value="1" style="edgeLabel;resizable=0;html=1;align=left;verticalAlign=bottom;" parent="HUu-bKfJvv8z3M91gBCA-111" connectable="0" vertex="1">
          <mxGeometry x="-1" relative="1" as="geometry" />
        </mxCell>
        <mxCell id="HUu-bKfJvv8z3M91gBCA-113" value="0..*" style="edgeLabel;resizable=0;html=1;align=right;verticalAlign=bottom;" parent="HUu-bKfJvv8z3M91gBCA-111" connectable="0" vertex="1">
          <mxGeometry x="1" relative="1" as="geometry">
            <mxPoint x="-11" as="offset" />
          </mxGeometry>
        </mxCell>
        <mxCell id="HUu-bKfJvv8z3M91gBCA-114" value="" style="endArrow=none;html=1;edgeStyle=orthogonalEdgeStyle;rounded=0;entryX=0.002;entryY=0.481;entryDx=0;entryDy=0;entryPerimeter=0;exitX=1;exitY=0.5;exitDx=0;exitDy=0;" parent="1" edge="1">
          <mxGeometry relative="1" as="geometry">
            <mxPoint x="770" y="372.5" as="sourcePoint" />
            <mxPoint x="871" y="372.5" as="targetPoint" />
          </mxGeometry>
        </mxCell>
        <mxCell id="HUu-bKfJvv8z3M91gBCA-115" value="0..*" style="edgeLabel;resizable=0;html=1;align=left;verticalAlign=bottom;" parent="HUu-bKfJvv8z3M91gBCA-114" connectable="0" vertex="1">
          <mxGeometry x="-1" relative="1" as="geometry" />
        </mxCell>
        <mxCell id="HUu-bKfJvv8z3M91gBCA-116" value="0..*" style="edgeLabel;resizable=0;html=1;align=right;verticalAlign=bottom;" parent="HUu-bKfJvv8z3M91gBCA-114" connectable="0" vertex="1">
          <mxGeometry x="1" relative="1" as="geometry">
            <mxPoint x="-1" y="-2" as="offset" />
          </mxGeometry>
        </mxCell>
        <mxCell id="HUu-bKfJvv8z3M91gBCA-117" value="Message Class" style="text;align=center;fontStyle=1;verticalAlign=middle;spacingLeft=3;spacingRight=3;strokeColor=none;rotatable=0;points=[[0,0.5],[1,0.5]];portConstraint=eastwest;html=1;" parent="1" vertex="1">
          <mxGeometry x="440" y="210" width="80" height="26" as="geometry" />
        </mxCell>
      </root>
    </mxGraphModel>
  </diagram>
</mxfile>
